<svg xmlns="http://www.w3.org/2000/svg" xmlns:xlink="http://www.w3.org/1999/xlink" x="0" y="0" version="1.1" viewBox="0 0 500 500" xml:space="preserve" style="enable-background:new 0 0 500 500"><style type="text/css">.st0{fill:#15013d}.st1{stroke:#25e899}.st1,.st2,.st3,.st4{fill:none;stroke-width:2;stroke-miterlimit:10}.st2{stroke:#8e2abe}.st3{stroke:#ffce08}.st4{stroke:#3e00ff}.st5{fill:#0fce7c}.st10,.st11{fill:none;stroke-width:2;stroke-miterlimit:10}.st6{stroke:#f9006c}.st6,.st7,.st8,.st9{fill:none;stroke-width:2;stroke-miterlimit:10}.st10,.st11{stroke-dasharray:7.62,7.62}.st7{stroke:#25e899}.st7,.st8,.st9{stroke-dasharray:7.62,7.62}.st8{stroke:#3e00ff}.st9{stroke:#ffce08}.st10{stroke:#f9006c}.st11{stroke:#8e2abe}.st12{fill:none;stroke:#25e899}.st13,.st14{fill:none;stroke:#3e00ff}.st14{stroke:#ffce08}.st15,.st16{fill:none;stroke:#f9006c}.st16{stroke:#8e2abe}</style><g id="Ebene_1"><polygon points="119.8 419.4 95.4 417.4 95.4 404.9 119.8 402.9" class="st0"/><rect width="12.8" height="12.8" x="149.9" y="76.5" class="st0" transform="matrix(0.7071 -0.7071 0.7071 0.7071 -12.8405 134.8228)"/><rect width="50.8" height="10.2" x="147.2" y="109.7" class="st0"/><path d="M221.6,82.8c0-1.9,1.6-3.5,3.5-3.5c1.9,0,3.5,1.6,3.5,3.5c0,1.9-1.6,3.5-3.5,3.5c0,0,0,0,0,0 C223.2,86.3,221.6,84.8,221.6,82.8z" class="st0"/><path d="M239.4,85.1v-5.4c0-0.8,0.7-1.5,1.5-1.5c0.3,0,0.5,0.1,0.7,0.2l2.4,1.3l2.3,1.3c0.7,0.4,1,1.3,0.6,2 c-0.1,0.2-0.3,0.4-0.6,0.6L244,85l-2.3,1.3c-0.7,0.4-1.6,0.2-2-0.5C239.5,85.6,239.4,85.3,239.4,85.1z" class="st0"/><path d="M252.5,102.5v-3.7c-3.1-1.8-5.6-4.3-7.5-7.4c-0.6-1-0.3-2.2,0.7-2.8s2.2-0.3,2.8,0.7c1.7,2.8,4.1,5,6.9,6.4 c0.7,0.4,1.1,1.1,1.1,1.8v4.9c0,1.1-0.9,2-2,2S252.5,103.7,252.5,102.5z" class="st0"/><path d="M245.1,73.3c1.8-3.1,4.4-5.6,7.5-7.4v-3.7c0-1.1,0.9-2.1,2.1-2.1s2.1,0.9,2.1,2.1v4.9c0,0.8-0.4,1.5-1.1,1.8 c-2.9,1.5-5.3,3.7-6.9,6.4c-0.6,1-1.8,1.3-2.8,0.7S244.5,74.2,245.1,73.3L245.1,73.3z" class="st0"/><path d="M259.4,65.6v-6.1c0-1.1,0.9-2.1,2.1-2.1c1.1,0,2,0.9,2,2.1v6.1c0,1.1-0.9,2.1-2,2.1 C260.3,67.7,259.4,66.8,259.4,65.6z" class="st0"/><path d="M261.5,97c1.1,0,2,0.9,2,2v6.1c0,1.1-0.9,2.1-2.1,2.1c-1.1,0-2-0.9-2-2.1v-6c-0.1-1.1,0.8-2,1.9-2.1 C261.3,97,261.4,97,261.5,97z" class="st0"/><path d="M268.1,89c-3.6,3.6-9.5,3.6-13.2,0c-3.6-3.6-3.6-9.5,0-13.2s9.5-3.6,13.2,0c1.7,1.7,2.7,4.1,2.7,6.6 C270.8,84.9,269.8,87.3,268.1,89z" class="st0"/><path d="M266.3,102.5v-4.9c0-0.8,0.4-1.5,1.1-1.8c2.9-1.4,5.3-3.7,6.9-6.4c0.6-1,1.8-1.3,2.8-0.7 c1,0.6,1.3,1.8,0.7,2.8c-1.8,3.1-4.4,5.6-7.5,7.4v3.7c0,1.1-0.9,2-2,2C267.2,104.6,266.3,103.7,266.3,102.5z" class="st0"/><path d="M266.3,67.1v-4.9c0-1.1,0.9-2,2-2c1.1,0,2,0.9,2,2v3.7c3.1,1.8,5.6,4.3,7.5,7.4c0.6,0.9,0.3,2.2-0.6,2.8 c0,0-0.1,0-0.1,0c-1,0.6-2.2,0.3-2.8-0.7c-1.7-2.8-4.1-5-6.9-6.4C266.7,68.6,266.3,67.9,266.3,67.1z" class="st0"/><path d="M276.6,81.1l2.4-1.3l2.3-1.3c0.7-0.4,1.6-0.2,2,0.6c0.1,0.2,0.2,0.5,0.2,0.7v5.4c0,0.8-0.7,1.5-1.5,1.5 c-0.3,0-0.5-0.1-0.7-0.2L279,85l-2.3-1.3c-0.7-0.4-1-1.3-0.6-2C276.2,81.4,276.4,81.2,276.6,81.1z" class="st0"/><path d="M292.9,82.8c-0.1-1.9,1.3-3.6,3.2-3.8c1.9-0.1,3.6,1.3,3.8,3.2c0,0.2,0,0.4,0,0.5c0,0,0,0.1,0,0.1 c0,1.9-1.6,3.5-3.5,3.5C294.4,86.3,292.9,84.8,292.9,82.8z" class="st0"/><rect width="50.8" height="10.2" x="318.1" y="109.7" class="st0"/><rect width="12.8" height="12.8" x="357.7" y="76.5" class="st0" transform="matrix(0.7071 -0.7071 0.7071 0.7071 47.9995 281.7032)"/><polygon points="394.3 432 120.1 432 120.1 388.3 151.6 388.3 151.6 387.9 135.5 387.9 135.5 120.1 378.9 120.1 378.9 387.9 361.6 387.9 361.6 388.3 394.3 388.3" class="st0"/><rect width="243.4" height="267.8" x="135.5" y="120.1" class="st1"/><rect width="210" height="253.9" x="151.6" y="134.4" class="st2"/><circle cx="140.6" cy="410.8" r="5.1" class="st3"/><circle cx="162.2" cy="410.8" r="5.1" class="st3"/><circle cx="183.8" cy="410.8" r="5.1" class="st3"/><polyline points="446.4 432 394.3 432 120.1 432 70.6 432" class="st1"/><polygon points="119.8 402.9 119.8 419.4 95.4 417.4 95.4 404.9" class="st4"/><path d="M0,421.4c9.8,2,25.5,2.4,43.1-4.5c29.8-11.6,50.6-6.6,50.6-6.6" class="st1"/><rect width="50.8" height="10.2" x="147.2" y="109.7" class="st1"/><rect width="50.8" height="10.2" x="318.1" y="109.7" class="st1"/><line x1="156.3" x2="156.3" y1="91.3" y2="108.7" class="st4"/><line x1="364" x2="364" y1="91.3" y2="108.7" class="st4"/><path d="M261.5,73.1c-5.1,0-9.3,4.2-9.3,9.3s4.2,9.3,9.3,9.3c5.1,0,9.3-4.2,9.3-9.3C270.8,77.2,266.6,73.1,261.5,73.1z M265.2,86.1c-1,1-2.3,1.5-3.7,1.5c-2.9,0-5.2-2.3-5.2-5.2s2.3-5.2,5.2-5.2s5.2,2.3,5.2,5.2C266.7,83.7,266.1,85.1,265.2,86.1 L265.2,86.1z" class="st5"/><path d="M277.9,91.5c-1.8,3.1-4.4,5.6-7.5,7.4v3.7c0,1.1-0.9,2-2,2c-1.1,0-2-0.9-2-2v-4.9c0-0.8,0.4-1.5,1.1-1.8 c2.9-1.4,5.3-3.7,6.9-6.4c0.6-1,1.8-1.3,2.8-0.7C278.1,89.3,278.5,90.5,277.9,91.5z" class="st5"/><path d="M256.6,97.6v4.9c0,1.1-0.9,2-2,2s-2-0.9-2-2v-3.7c-3.1-1.8-5.6-4.3-7.5-7.4c-0.6-1-0.3-2.2,0.7-2.8 s2.2-0.3,2.8,0.7c1.7,2.8,4.1,5,6.9,6.4C256.2,96.2,256.6,96.9,256.6,97.6z" class="st5"/><path d="M277.2,76.1c-1,0.6-2.2,0.3-2.8-0.7c-1.7-2.8-4.1-5-6.9-6.4c-0.7-0.3-1.1-1.1-1.1-1.8v-4.9c0-1.1,0.9-2,2-2 c1.1,0,2,0.9,2,2v3.7c3.1,1.8,5.6,4.3,7.5,7.4C278.5,74.2,278.2,75.4,277.2,76.1C277.2,76,277.2,76.1,277.2,76.1z" class="st5"/><path d="M256.6,62.2v4.9c0,0.8-0.4,1.5-1.1,1.8c-2.9,1.5-5.3,3.7-6.9,6.4c-0.6,1-1.8,1.3-2.8,0.7s-1.3-1.8-0.7-2.8 c1.8-3.1,4.4-5.6,7.5-7.4v-3.7c0-1.1,0.9-2,2.1-2C255.7,60.2,256.6,61.1,256.6,62.2z" class="st5"/><path d="M283.5,79.7v5.4c0,0.8-0.7,1.5-1.5,1.5c-0.3,0-0.5-0.1-0.7-0.2L279,85l-2.3-1.3c-0.7-0.4-1-1.3-0.6-2 c0.1-0.2,0.3-0.4,0.6-0.6l2.3-1.4l2.3-1.3c0.7-0.4,1.6-0.1,2,0.6C283.5,79.2,283.5,79.4,283.5,79.7z" class="st5"/><path d="M246.3,83.7L244,85l-2.3,1.3c-0.7,0.4-1.6,0.2-2-0.5c-0.1-0.2-0.2-0.5-0.2-0.8v-5.4c0-0.8,0.7-1.5,1.5-1.5 c0.3,0,0.5,0.1,0.7,0.2l2.3,1.3l2.3,1.3c0.7,0.4,0.9,1.3,0.5,2C246.7,83.3,246.5,83.5,246.3,83.7z" class="st5"/><path d="M263.5,99.1v6.1c0,1.1-0.9,2.1-2.1,2.1c-1.1,0-2-0.9-2-2.1v-6.1c0-1.1,0.9-2.1,2-2.1 C262.6,97,263.5,98,263.5,99.1z" class="st5"/><path d="M263.5,59.6v6.1c0,1.1-0.9,2.1-2.1,2.1c-1.1,0-2-0.9-2-2.1v-6.1c0-1.1,0.9-2.1,2-2.1 C262.6,57.5,263.5,58.4,263.5,59.6z" class="st5"/><line x1="355" x2="298.8" y1="82.9" y2="82.9" class="st4"/><line x1="221.4" x2="165.2" y1="82.9" y2="82.9" class="st4"/><path d="M299.9,82.8C299.9,82.9,299.9,82.9,299.9,82.8c0,1.9-1.5,3.3-3.3,3.3s-3.2-1.5-3.2-3.3s1.5-3.2,3.3-3.2 C298.4,79.6,299.9,81.1,299.9,82.8z" class="st4"/><path d="M228.6,82.8c0,1.9-1.6,3.5-3.5,3.5c-1.9,0-3.5-1.6-3.5-3.5c0-1.9,1.6-3.5,3.5-3.5c0,0,0,0,0,0 C227.1,79.3,228.6,80.9,228.6,82.8C228.6,82.8,228.6,82.8,228.6,82.8z" class="st4"/><rect width="274.2" height="43.7" x="120.1" y="388.3" class="st1"/><rect width="12.8" height="12.8" x="149.9" y="76.5" class="st3" transform="matrix(0.7071 -0.7071 0.7071 0.7071 -12.8405 134.8228)"/><rect width="12.8" height="12.8" x="357.7" y="76.5" class="st3" transform="matrix(0.7071 -0.7071 0.7071 0.7071 47.9995 281.7032)"/><circle cx="181.7" cy="170.4" r="13.2" class="st1"/><circle cx="181.7" cy="214.8" r="13.2" class="st4"/><circle cx="181.7" cy="259.3" r="13.2" class="st3"/><circle cx="181.7" cy="303.8" r="13.2" class="st6"/><circle cx="181.7" cy="348.1" r="13.2" class="st2"/><line x1="209.1" x2="213.1" y1="170.1" y2="170.1" class="st1"/><line x1="220.8" x2="308.4" y1="170.1" y2="170.1" class="st7"/><line x1="312.2" x2="316.2" y1="170.1" y2="170.1" class="st1"/><line x1="209.1" x2="213.1" y1="213.8" y2="213.8" class="st4"/><line x1="220.8" x2="308.4" y1="213.8" y2="213.8" class="st8"/><line x1="312.2" x2="316.2" y1="213.8" y2="213.8" class="st4"/><line x1="209.1" x2="213.1" y1="257.5" y2="257.5" class="st3"/><line x1="220.8" x2="308.4" y1="257.5" y2="257.5" class="st9"/><line x1="312.2" x2="316.2" y1="257.5" y2="257.5" class="st3"/><line x1="209.1" x2="213.1" y1="302.2" y2="302.2" class="st6"/><line x1="220.8" x2="308.4" y1="302.2" y2="302.2" class="st10"/><line x1="312.2" x2="316.2" y1="302.2" y2="302.2" class="st6"/><line x1="209.1" x2="213.1" y1="348.9" y2="348.9" class="st2"/><line x1="220.8" x2="308.4" y1="348.9" y2="348.9" class="st11"/><line x1="312.2" x2="316.2" y1="348.9" y2="348.9" class="st2"/><circle cx="181.7" cy="344.1" r="3.3" class="st2"/><path d="M171.4,355.9c0,0,9.5-10.4,20.9-0.1" class="st2"/><circle cx="181.7" cy="299.4" r="3.3" class="st6"/><path d="M171.4,311.1c0,0,9.5-10.4,20.9-0.1" class="st6"/><circle cx="181.7" cy="255.5" r="3.3" class="st3"/><path d="M171.4,267.2c0,0,9.5-10.4,20.9-0.1" class="st3"/><circle cx="181.7" cy="211" r="3.3" class="st4"/><path d="M171.4,222.8c0,0,9.5-10.4,20.9-0.1" class="st4"/><circle cx="181.7" cy="166.8" r="3.3" class="st1"/><path d="M171.4,178.5c0,0,9.5-10.4,20.9-0.1" class="st1"/></g><g id="Ebene_3"><g><path d="M340.2,178.5l-6.2-9.3l6.2-9.3l6.2,9.3L340.2,178.5z" class="st12"/><path d="M334,169.2l6.2,3.1l6.2-3.1 M340.2,159.9v18.6" class="st12"/></g><path d="M340.2,222.5l-6.2-9.3l6.2-9.3l6.2,9.3L340.2,222.5z" class="st13"/><path d="M334,213.2l6.2,3.1l6.2-3.1 M340.2,204v18.6" class="st13"/><path d="M332.1,256h16.8 M332.1,258.8h16.8 M334.8,264.4h4.2c3.9,0,7-3.1,7-7s-3.1-7-7-7h-4.2V264.4z" class="st14"/><path d="M340.2,310.7l-6.2-9.3l6.2-9.3l6.2,9.3L340.2,310.7z" class="st15"/><path d="M334,301.4l6.2,3.1l6.2-3.1 M340.2,292.1v18.6" class="st15"/><path d="M332.1,347.3h16.8 M332.1,350.1h16.8 M334.8,355.7h4.2c3.9,0,7-3.1,7-7s-3.1-7-7-7h-4.2V355.7z" class="st16"/></g><g id="particles"><g><polygon points="75.3 266.3 92.8 280.4 86.6 302 69 288" class="st0"/><polygon points="92.8 280.4 86.6 302 69 288 75.3 266.3" class="st4"/><path d="M86.6,302l-3.8-11.9l-7.5-23.8 M92.8,280.4l-10,9.7L69,288" class="st4"/></g><g><line x1="93" x2="93" y1="179.9" y2="193.9" class="st6"/><line x1="100" x2="86" y1="186.9" y2="186.9" class="st6"/></g><g><polygon points="92.4 66 84.4 73.8 86.3 84.8 76.4 79.6 66.5 84.8 68.4 73.8 60.4 66 71.5 64.4 76.4 54.3 81.3 64.4" class="st0"/><polygon points="84.4 73.8 86.3 84.8 76.4 79.6 66.5 84.8 68.4 73.8 60.4 66 71.5 64.4 76.4 54.3 81.3 64.4 92.4 66" class="st1"/></g><g><line x1="185.4" x2="185.4" y1="46.8" y2="60.8" class="st6"/><line x1="192.4" x2="178.4" y1="53.8" y2="53.8" class="st6"/></g><g><line x1="317.7" x2="317.7" y1="39" y2="53" class="st6"/><line x1="324.6" x2="310.7" y1="46" y2="46" class="st6"/></g><g><polygon points="427.8 125.2 437.3 145.6 422.2 162.2 412.6 141.8" class="st0"/><polygon points="437.3 145.6 422.2 162.2 412.6 141.8 427.8 125.2" class="st4"/><path d="M422.2,162.2l1.8-12.4l3.7-24.7 M437.3,145.6l-13.3,4.3l-11.4-8" class="st4"/></g><g><line x1="424.8" x2="424.8" y1="205" y2="218.9" class="st6"/><line x1="431.8" x2="417.8" y1="211.9" y2="211.9" class="st6"/></g><g><circle cx="447.3" cy="313.5" r="15.2" class="st0"/><path d="M445.8,313.5c-1.7,0-3-1.4-3-3c0-1.7,1.4-3,3-3" class="st1"/><path d="M448.8,313.5c1.7,0,3,1.4,3,3c0,1.7-1.4,3-3,3l0,0" class="st1"/><line x1="447.3" x2="447.3" y1="304.4" y2="307.4" class="st1"/><line x1="447.3" x2="447.3" y1="319.6" y2="322.7" class="st1"/><line x1="445.8" x2="448.8" y1="313.5" y2="313.5" class="st1"/><path d="M451.9,309c-0.8-0.8-1.9-1.4-3-1.5h-3" class="st1"/><path d="M442.7,318.1c0.8,0.8,1.9,1.4,3,1.5h3" class="st1"/><circle cx="447.3" cy="313.5" r="15.2" class="st1"/></g></g></svg>