<svg xmlns="http://www.w3.org/2000/svg" xmlns:xlink="http://www.w3.org/1999/xlink" style="enable-background:new 0 0 500 500" x="0" y="0" version="1.1" viewBox="0 0 500 500" xml:space="preserve"><style type="text/css">.st0{fill:#15013d}.st1{fill:none;stroke:#fecd2e;stroke-width:2;stroke-miterlimit:10}.st2{stroke:#25e899}.st2,.st3,.st4,.st5{fill:none;stroke-width:2;stroke-miterlimit:10}.st3{stroke:#25e899;stroke-dasharray:11.82,11.82}.st4{stroke:#f9006c}.st5{stroke:#3e00ff}.st6{stroke:#25e899;stroke-dasharray:11.09,11.09}.st6,.st7,.st8,.st9{fill:none;stroke-width:2;stroke-miterlimit:10}.st7{stroke:#25e899;stroke-dasharray:12.1,12.1}.st8{stroke:#8e2abe}.st9{stroke:#ffce08}</style><g id="Ebene_1"><path d="M196.3,299.8c-2.6,2.7,0.9,11.1,0.9,11.1l-3.3,0.9l3.2,1.6c-1.6,0.9-2.9,2.4-3.5,4.1 c-2.9,9.5,4.4,9.1,1.6,16.7s-10.4,5.3-21.9,6.5s-9.4,7.2-8.1,13.4s10.6,26.4,10.6,26.4l-81.3-7c17.5-22.2,3.8-40.8,3.8-40.8 C67,285.5,73.1,260,75.6,253.5c35.5-3,70.3-9.4,105-17.5c5.2-1.9,10.9-3,16-5.2c4.8,19.9,4.6,25.4,0.1,34.3s4.5,22.6,8.3,26.4 s0.4,6.5,0,7.3S196.3,299.8,196.3,299.8z" class="st0"/><path d="M412.1,412l-96.6,8.3c0,0,11.1-24,12.6-31.4s4-14.5-9.6-16s-22.6,1.2-26-7.8s5.4-8.5,1.9-19.8 c-0.8-2.1-2.3-3.8-4.2-4.9l3.8-1.9l-3.9-1.1c0,0,4.1-10.1,1-13.2c0,0-10.1-0.5-10.5-1.4s-4.5-4.1,0-8.6s15.3-20.8,9.9-31.3 c-4.4-8.6-5.4-18.3,0.3-42.2c6.1,2.4,12.3,4.4,18.6,6.1c18.9,5.4,35.5,9.3,55,11.7c20.7,2.6,38.9,8.5,59.7,8.2 c3.4,0,7,0.4,10.4,0.2c5.3,21.9,4.8,48.6-26.8,96.6C407.6,363.5,391.4,385.5,412.1,412z" class="st0"/><ellipse cx="362.3" cy="247.3" class="st0" rx="12.5" ry="92" transform="matrix(0.1735 -0.9848 0.9848 0.1735 55.956 561.1812)"/><ellipse cx="365" cy="237.8" class="st0" rx="12.5" ry="23.9" transform="matrix(0.1712 -0.9852 0.9852 0.1712 68.1989 556.6634)"/><ellipse cx="136.6" cy="235.5" class="st0" rx="77.2" ry="10.4" transform="matrix(0.9848 -0.1735 0.1735 0.9848 -38.7752 27.2644)"/><ellipse cx="134.3" cy="227.6" class="st0" rx="20.1" ry="10.4" transform="matrix(0.9852 -0.1712 0.1712 0.9852 -36.985 26.3614)"/><circle cx="245.6" cy="113.9" r="14.9" class="st0"/><path d="M76.4,251.8c-0.3,0.5-0.5,1.1-0.7,1.7c-2.5,6.5-8.6,32,22.6,79.4c0,0,13.7,18.6-3.8,40.8l81.3,7 c0,0-9.3-20.2-10.6-26.4s-3.4-12.2,8.1-13.4s19,1,21.9-6.5s-4.5-7.1-1.6-16.7c0.6-1.7,1.9-3.2,3.5-4.1l-3.2-1.6l3.3-0.9 c0,0-3.4-8.5-0.9-11.1c0,0,8.5-0.4,8.8-1.1s3.8-3.5,0-7.3s-12.9-17.4-8.3-26.4s4.7-14.4-0.1-34.3c0-0.2-0.1-0.4-0.1-0.6" class="st1"/><line x1="245.4" x2="245.4" y1="176.7" y2="170.7" class="st2"/><line x1="245.4" x2="245.4" y1="158.8" y2="141.1" class="st3"/><line x1="245.4" x2="245.4" y1="135.2" y2="129.2" class="st2"/><circle cx="245.5" cy="114.2" r="3.2" class="st2"/><circle cx="245.6" cy="114.2" r="9.3" class="st2"/><ellipse cx="245.7" cy="114.2" class="st2" rx="14.8" ry="14.8" transform="matrix(0.1602 -0.9871 0.9871 0.1602 93.5645 338.4119)"/><line x1="260.9" x2="267.5" y1="102.4" y2="97.1" class="st2"/><line x1="264.1" x2="274.5" y1="114.3" y2="114.3" class="st2"/><line x1="260.3" x2="267.6" y1="126.2" y2="130.1" class="st2"/><line x1="230.2" x2="223.6" y1="102.4" y2="97.1" class="st2"/><line x1="226.9" x2="216.5" y1="114.3" y2="114.3" class="st2"/><line x1="230.7" x2="223.4" y1="126.2" y2="130.1" class="st2"/><circle cx="362.5" cy="254.9" r="14.3" class="st4"/><circle cx="362.4" cy="254.8" r="30.5" class="st4"/><circle cx="136.1" cy="241.5" r="12.1" class="st4"/><circle cx="136.2" cy="241.4" r="25.7" class="st4"/><path d="M389.7,241.2c37.6,8.3,64.6,17.5,63.7,22.5c-1.1,6-42.7,3.4-92.8-5.8s-89.9-21.6-88.8-27.6 c0.9-5.1,30.7-4,70.2,2" class="st5"/><path d="M113.3,230c-31.7,7-54.3,14.8-53.6,18.9c0.9,5,35.9,2.8,78.1-4.9s75.7-18.1,74.8-23.2 c-0.8-4.3-25.9-3.4-59.1,1.7" class="st5"/><line x1="358.8" x2="353.7" y1="248" y2="244.8" class="st2"/><line x1="344.3" x2="255.1" y1="238.9" y2="182.8" class="st6"/><polyline points="250.4 179.9 245.4 176.7 240.1 179.5" class="st2"/><line x1="229.4" x2="149.4" y1="185.2" y2="228" class="st7"/><line x1="144.1" x2="138.8" y1="230.9" y2="233.7" class="st2"/><path d="M290.8,241.4c-1.1,4.5-2,8.4-2.7,11.8c-3,15-2.1,21,2.3,29.6c5.4,10.6-5.4,26.8-9.9,31.3s-0.4,7.8,0,8.6 s10.5,1.4,10.5,1.4c3.1,3.2-1,13.2-1,13.2l3.9,1.1l-3.8,1.9c1.9,1.1,3.4,2.8,4.2,4.9c3.5,11.4-5.2,10.9-1.9,19.8s12.3,6.3,26,7.8 s11.2,8.5,9.6,16s-12.6,31.4-12.6,31.4l96.6-8.3c-20.8-26.4-4.5-48.5-4.5-48.5c31.6-47.9,31-77,28.3-89.4c-0.4-2.4-1.2-4.7-2.3-6.9" class="st1"/></g><g id="particle"><g><polygon points="68.2 57.1 77.7 77.5 62.6 94.1 53 73.7" class="st0"/><polygon points="77.7 77.5 62.6 94.1 53 73.7 68.2 57.1" class="st5"/><path d="M62.6,94.1l1.9-12.3l3.7-24.7 M77.7,77.5l-13.3,4.3l-11.4-8" class="st5"/></g><g><path d="M149.5,158.5c-5.9,1.4-3.8,10.6,2.2,9.2S155.5,157,149.5,158.5z" class="st0"/><path d="M157.1,142.5c-1.3,3.5-4.1,8.7-3.1,13.5l0.3-0.1c0.7-0.2,1.4,0.3,1.6,1c0,0,0,0,0,0l1.1,4.7 c0.2,0.7-0.3,1.4-1,1.6c0,0,0,0,0,0l-10.5,2.5c-0.7,0.2-1.4-0.3-1.6-1c0,0,0,0,0,0l-1.1-4.7c-0.2-0.7,0.3-1.4,1-1.6c0,0,0,0,0,0 l0.3-0.1c-1.3-4.8-6-8.1-8.7-10.6c-2-1.8-3.4-4.2-4-6.8c-1.8-7.5,1.8-14.2,10-16.1s14,2.8,15.9,9.2 C158.2,136.8,158.1,139.8,157.1,142.5z" class="st0"/><path d="M144.2,158.6c0-0.1,0-0.2-0.1-0.3c-1.3-4.8-6-8.1-8.7-10.6c-2-1.8-3.4-4.2-4-6.8c-1.8-7.5,1.8-14.2,10-16.1 s14,2.8,15.9,9.2c0.8,2.8,0.8,5.8-0.2,8.5c-1.3,3.5-4.1,8.7-3.1,13.5l0.1,0.3" class="st5"/><path d="M154.2,164.2c0.4,1.8-0.7,3.6-2.5,4s-3.6-0.7-4-2.5" class="st8"/><path d="M143.9,158.4l10.5-2.5c0.7-0.2,1.4,0.3,1.6,1l1.1,4.7c0.2,0.7-0.3,1.4-1,1.6l-10.5,2.5 c-0.7,0.2-1.4-0.3-1.6-1l-1.1-4.7C142.7,159.3,143.2,158.6,143.9,158.4z" class="st8"/><line x1="128.2" x2="123.3" y1="141.8" y2="142.9" class="st9"/><line x1="165.7" x2="160.8" y1="132.9" y2="134" class="st9"/><line x1="129.7" x2="126.9" y1="148.3" y2="150.7" class="st9"/><line x1="162.1" x2="159.3" y1="125.1" y2="127.5" class="st9"/><line x1="126.6" x2="122.8" y1="135.2" y2="134.4" class="st9"/><line x1="166.2" x2="162.4" y1="141.4" y2="140.6" class="st9"/><line x1="148.8" x2="147" y1="156" y2="148.4" class="st9"/><rect width="4.6" height="4.6" x="144" y="142.7" class="st9" transform="matrix(0.5247 -0.8513 0.8513 0.5247 -53.8863 193.3925)"/></g><g><line x1="163.4" x2="163.4" y1="54.3" y2="68.3" class="st4"/><line x1="170.4" x2="156.4" y1="61.3" y2="61.3" class="st4"/></g><g><line x1="336.4" x2="336.4" y1="70.7" y2="84.7" class="st4"/><line x1="343.3" x2="329.4" y1="77.7" y2="77.7" class="st4"/></g><g><polygon points="414 150.9 406 158.7 407.9 169.7 398 164.5 388.1 169.7 390 158.7 382 150.9 393 149.3 398 139.2 402.9 149.3" class="st0"/><polygon points="406 158.7 407.9 169.7 398 164.5 388.1 169.7 390 158.7 382 150.9 393 149.3 398 139.2 402.9 149.3 414 150.9" class="st2"/></g><g><circle cx="442.7" cy="65.8" r="15.2" class="st0"/><path d="M441.2,65.8c-1.7,0-3-1.4-3-3c0-1.7,1.4-3,3-3" class="st2"/><path d="M444.2,65.8c1.7,0,3,1.4,3,3s-1.4,3-3,3l0,0" class="st2"/><line x1="442.7" x2="442.7" y1="56.7" y2="59.8" class="st2"/><line x1="442.7" x2="442.7" y1="71.9" y2="75" class="st2"/><line x1="441.2" x2="444.2" y1="65.8" y2="65.8" class="st2"/><path d="M447.2,61.3c-0.8-0.8-1.9-1.4-3-1.5h-3" class="st2"/><path d="M438.1,70.4c0.8,0.8,1.9,1.4,3,1.5h3" class="st2"/><circle cx="442.7" cy="65.8" r="15.2" class="st2"/></g></g></svg>