<svg xmlns="http://www.w3.org/2000/svg" xmlns:xlink="http://www.w3.org/1999/xlink" style="enable-background:new 0 0 500 500" x="0" y="0" version="1.1" viewBox="0 0 500 500" xml:space="preserve"><style type="text/css">.st0{fill:#15013d}.st1{stroke:#f9006c}.st1,.st2,.st3,.st4{fill:none;stroke-width:2;stroke-miterlimit:10}.st2{stroke:#fecd2e}.st3{stroke:#25e899}.st4{stroke:#3e00ff}</style><g id="Ebene_1"><rect width="77.6" height="92.3" x="37.8" y="196.6" class="st0"/><path d="M191.1,290.9c0,5.2-4.2,9.4-9.4,9.4c-5.2,0-9.4-4.2-9.4-9.4c0-5.2,4.2-9.4,9.4-9.4 C186.8,281.5,191,285.7,191.1,290.9C191.1,290.9,191.1,290.9,191.1,290.9z" class="st0"/><path d="M203.1,220.9c0,5.2-4.2,9.4-9.4,9.4s-9.4-4.2-9.4-9.4c0-5.2,4.2-9.4,9.4-9.4 C198.9,211.4,203.1,215.6,203.1,220.9C203.1,220.8,203.1,220.9,203.1,220.9z" class="st0"/><path d="M246.4,341.6c0,5.2-4.2,9.4-9.4,9.4c-5.2,0-9.4-4.2-9.4-9.4c0-5.2,4.2-9.4,9.4-9.4 C242.2,332.2,246.4,336.4,246.4,341.6z" class="st0"/><path d="M257,191.9h-37l-17.5,13.8l3.1-13.8h-5.2c-4.1,0-7.4-3.3-7.4-7.4v-32.9c0-4.1,3.3-7.4,7.3-7.4c0,0,0,0,0,0H257 c4.1,0,7.4,3.3,7.4,7.3c0,0,0,0,0,0v32.9C264.4,188.6,261.1,191.9,257,191.9z" class="st0"/><path d="M308.2,288.4l-17.5-13.8h-37c-4.1,0-7.4-3.3-7.4-7.4v-33c0-4.1,3.3-7.4,7.4-7.4h56.7c4.1,0,7.4,3.3,7.4,7.4v0 v33c0,4.1-3.3,7.4-7.4,7.4l0,0h-5.2L308.2,288.4z" class="st0"/><path d="M326.8,302.4c0,5.2-4.2,9.4-9.4,9.4s-9.4-4.2-9.4-9.4c0-5.2,4.2-9.4,9.4-9.4 C322.6,293,326.8,297.2,326.8,302.4C326.8,302.4,326.8,302.4,326.8,302.4z" class="st0"/><circle cx="333.4" cy="177.9" r="9.4" class="st0"/><path d="M364.3,355.6c0,5.2-4.2,9.4-9.4,9.4s-9.4-4.2-9.4-9.4c0-5.2,4.2-9.4,9.4-9.4 C360.1,346.2,364.3,350.4,364.3,355.6C364.3,355.6,364.3,355.6,364.3,355.6z" class="st0"/><path d="M420.4,212.2c-5.2,0-9.4-4.2-9.4-9.4s4.2-9.4,9.4-9.4c5.2,0,9.4,4.2,9.4,9.4 C429.8,207.9,425.6,212.2,420.4,212.2C420.4,212.2,420.4,212.2,420.4,212.2z" class="st0"/><path d="M437.6,319.1L420,305.4h-37c-4.1,0-7.4-3.3-7.4-7.3c0,0,0,0,0,0v-33c0-4.1,3.3-7.4,7.3-7.4c0,0,0,0,0,0h56.7 c4,0,7.3,3.3,7.3,7.4v33c0,4.1-3.3,7.4-7.3,7.4c0,0,0,0,0,0h-5.2L437.6,319.1z" class="st0"/><path d="M446.8,328.1c5.2,0,9.4,4.2,9.4,9.4c0,5.2-4.2,9.4-9.4,9.4c-5.2,0-9.4-4.2-9.4-9.4c0,0,0,0,0,0 C437.4,332.3,441.6,328.1,446.8,328.1z" class="st0"/><rect width="65.1" height="69.6" x="434.9" y="1.3" class="st0"/><rect width="65.1" height="69.6" x="434.9" y="429.2" class="st0"/><path d="M500,430.2H185.1c-91.8,0-137.4-62.8-137.4-140.2l-1.3-79.4c0-77.4,47.8-139.3,138.7-139H500V430.2z" class="st0"/><path d="M500,399.3H207c-58.6,0-106.1-45.8-106.1-102.3v-7.9" class="st1"/><path d="M100.9,196.8L100.9,196.8c0-56.5,47.5-93.6,106.1-93.6h293" class="st1"/><rect width="19.6" height="92.3" x="57.1" y="196.6" class="st2"/><rect width="19.6" height="92.3" x="76.4" y="196.6" class="st2"/><rect width="19.6" height="92.3" x="95.8" y="196.6" class="st2"/><polyline points="500 70.9 434.9 70.9 434.9 1.3 500 1.3" class="st3"/><polyline points="500 498.8 434.9 498.8 434.9 429.2 500 429.2" class="st3"/><rect width="35.9" height="38.3" x="450.7" y="444.8" class="st2"/><rect width="35.9" height="38.3" x="450.7" y="17" class="st2"/><path d="M500,71.8H171.9c-68.3,0-123.6,55.3-123.6,123.6c0,0,0,0,0,0" class="st3"/><path d="M48.2,288.2v17.7c0,68.3,55.3,123.6,123.6,123.6c0,0,0,0,0,0H500" class="st3"/><rect width="19.6" height="92.3" x="37.6" y="196.6" class="st2"/></g><g id="Ebene_2"><path d="M246.4,341.6c0,5.2-4.2,9.4-9.4,9.4c-5.2,0-9.4-4.2-9.4-9.4c0-5.2,4.2-9.4,9.4-9.4 C242.2,332.2,246.4,336.4,246.4,341.6z" class="st1"/><path d="M191.1,290.9c0,5.2-4.2,9.4-9.4,9.4c-5.2,0-9.4-4.2-9.4-9.4c0-5.2,4.2-9.4,9.4-9.4 C186.8,281.5,191,285.7,191.1,290.9C191.1,290.9,191.1,290.9,191.1,290.9z" class="st3"/><path d="M203.1,220.9c0,5.2-4.2,9.4-9.4,9.4s-9.4-4.2-9.4-9.4c0-5.2,4.2-9.4,9.4-9.4 C198.9,211.4,203.1,215.6,203.1,220.9C203.1,220.8,203.1,220.9,203.1,220.9z" class="st1"/><path d="M429.8,202.8c0,5.2-4.2,9.4-9.4,9.4c-5.2,0-9.4-4.2-9.4-9.4s4.2-9.4,9.4-9.4 C425.6,193.4,429.8,197.6,429.8,202.8z" class="st4"/><circle cx="333.4" cy="177.9" r="9.4" class="st3"/><path d="M456.2,337.5c0,5.2-4.2,9.4-9.4,9.4s-9.4-4.2-9.4-9.4c0-5.2,4.2-9.4,9.4-9.4 C452,328.1,456.2,332.3,456.2,337.5C456.2,337.5,456.2,337.5,456.2,337.5z" class="st3"/><path d="M364.3,355.6c0,5.2-4.2,9.4-9.4,9.4s-9.4-4.2-9.4-9.4c0-5.2,4.2-9.4,9.4-9.4 C360.1,346.2,364.3,350.4,364.3,355.6C364.3,355.6,364.3,355.6,364.3,355.6z" class="st4"/><path d="M326.8,302.4c0,5.2-4.2,9.4-9.4,9.4s-9.4-4.2-9.4-9.4c0-5.2,4.2-9.4,9.4-9.4 C322.6,293,326.8,297.2,326.8,302.4C326.8,302.4,326.8,302.4,326.8,302.4z" class="st2"/></g><g id="Ebene_3"><g><polygon points="410.9 271.5 413.9 277.5 420.4 278.5 415.7 283.1 416.8 289.6 410.9 286.5 405 289.6 406.2 283.1 401.4 278.5 408 277.5" class="st3"/><path d="M447,265v33c0,4.1-3.3,7.4-7.3,7.4c0,0,0,0,0,0h-5.2l3.1,13.8L420,305.4h-37c-4.1,0-7.4-3.3-7.4-7.3 c0,0,0,0,0,0v-33c0-4.1,3.3-7.4,7.3-7.4c0,0,0,0,0,0h56.7C443.7,257.7,447,261,447,265z" class="st4"/></g><g><path d="M317.7,234.2v33c0,4.1-3.3,7.4-7.4,7.4l0,0h-5.2l3.1,13.8l-17.5-13.8h-37c-4.1,0-7.4-3.3-7.4-7.4v-33 c0-4.1,3.3-7.4,7.4-7.4h56.7C314.4,226.9,317.7,230.1,317.7,234.2z" class="st4"/><rect width="13.4" height="13.4" x="274.3" y="244.2" class="st2"/></g><circle cx="230.2" cy="167.9" r="8.5" class="st1"/><path d="M264.4,151.6v32.9c0,4.1-3.3,7.4-7.4,7.4h-37l-17.5,13.8l3.1-13.8h-5.2c-4.1,0-7.4-3.3-7.4-7.4v-32.9 c0-4.1,3.3-7.4,7.3-7.4c0,0,0,0,0,0H257C261.1,144.2,264.4,147.5,264.4,151.6C264.4,151.6,264.4,151.6,264.4,151.6z" class="st4"/></g></svg>